<svg width="36" height="36" viewBox="0 0 36 36" fill="none" xmlns="http://www.w3.org/2000/svg">
<g id="IconAndroid">
<path id="Vector" d="M31.9467 19.7848L26.4909 22.8346L21.5976 18.0317L26.5299 13.1903L31.9467 16.2181C32.2664 16.3966 32.5324 16.6558 32.7174 16.9691C32.9025 17.2825 33 17.6387 33 18.0015C33 18.3642 32.9025 18.7204 32.7174 19.0338C32.5324 19.3471 32.2664 19.6063 31.9467 19.7848ZM3.15592 2.77043C3.05261 3.01815 2.99963 3.28352 3 3.55143V32.4501C3 32.7485 3.06265 33.0262 3.17263 33.2751L18.7019 18.0303L3.15592 2.77043ZM20.1497 16.6099L24.6853 12.1576L6.09751 1.76804C5.69909 1.5419 5.23507 1.45518 4.78055 1.52191L20.1497 16.6099ZM20.1497 19.4521L4.83623 34.4851C5.25109 34.5346 5.68822 34.4631 6.09751 34.2335L24.6464 23.8659L20.1497 19.4521Z" fill="#EAECEE"/>
</g>
</svg>
