<svg width="36" height="36" viewBox="0 0 36 36" fill="none" xmlns="http://www.w3.org/2000/svg">
<g id="IconIOS">
<path id="Vector" d="M17.5096 10.8329C16.1956 10.8329 14.1616 9.3389 12.0196 9.3929C9.19358 9.4289 6.60158 11.0309 5.14358 13.5689C2.20958 18.6629 4.38758 26.1869 7.24958 30.3269C8.65358 32.3429 10.3096 34.6109 12.5056 34.5389C14.6116 34.4489 15.4036 33.1709 17.9596 33.1709C20.4976 33.1709 21.2176 34.5389 23.4496 34.4849C25.7176 34.4489 27.1576 32.4329 28.5436 30.3989C30.1456 28.0589 30.8116 25.7909 30.8476 25.6649C30.7936 25.6469 26.4376 23.9729 26.3836 18.9329C26.3476 14.7209 29.8216 12.7049 29.9836 12.6149C28.0036 9.7169 24.9616 9.3929 23.8996 9.3209C21.1276 9.1049 18.8056 10.8329 17.5096 10.8329ZM22.1896 6.5849C23.3596 5.1809 24.1336 3.2189 23.9176 1.2749C22.2436 1.3469 20.2276 2.3909 19.0216 3.7949C17.9416 5.0369 17.0056 7.0349 17.2576 8.9429C19.1116 9.0869 21.0196 7.9889 22.1896 6.5849Z" fill="#EAECEE"/>
</g>
</svg>
