<svg width="224" height="38" viewBox="0 0 224 38" fill="none" xmlns="http://www.w3.org/2000/svg">
<g id="Logo Flatten 32px">
<g id="Flatten">
<path d="M30.4924 4.72694C32.7075 2.52219 36.299 2.52219 38.5142 4.72694C40.7293 6.93169 40.7293 10.5063 38.5142 12.711L21.5063 29.6391C19.2911 31.8438 15.6997 31.8438 13.4845 29.6391C11.2694 27.4343 11.2694 23.8597 13.4845 21.655L30.4924 4.72694Z" fill="#000AFF"/>
<path d="M33.0248 15.4536C34.9268 13.5606 38.0106 13.5606 39.9126 15.4536C41.8146 17.3467 41.8146 20.4159 39.9126 22.309L26.4126 35.7456C24.5106 37.6386 21.4269 37.6386 19.5249 35.7456C17.6229 33.8525 17.6229 30.7832 19.5249 28.8902L33.0248 15.4536Z" fill="#FFE000"/>
<path d="M22.5892 1.4764C24.567 -0.492132 27.7737 -0.492132 29.7515 1.4764C31.7293 3.44492 31.7293 6.63654 29.7515 8.60507L14.602 23.6835C12.6242 25.652 9.41749 25.652 7.43967 23.6835C5.46186 21.7149 5.46186 18.5233 7.43967 16.5548L22.5892 1.4764Z" fill="#6200FF"/>
<path d="M27.6454 23.6727L26.213 22.2488C27.8624 20.6091 31.3957 16.9672 32.8542 15.5173C34.1564 14.2228 35.8492 13.8345 37.1514 14.0934L27.6454 23.6727Z" fill="#C5B350"/>
<path d="M19.4416 15.6468L21.1344 17.2002L29.8591 8.52701C31.1613 7.2325 31.4218 5.42019 31.1613 4.12569L31.0047 4.25514L28.8173 6.32635L19.4416 15.6468Z" fill="#002EA3"/>
<path d="M12.7491 8.8026C12.7033 8.75465 12.6567 8.70712 12.6094 8.66003C9.63796 5.70255 4.92034 5.603 2.07229 8.43769C-0.747411 11.2442 -0.67744 15.8745 2.20781 18.8365L2.20543 18.8389L20.5075 37.0551C21.7733 38.315 23.8255 38.315 25.0913 37.0551L30.8212 31.3522C32.087 30.0923 32.087 28.0497 30.8212 26.7898L12.7491 8.8026Z" fill="#FF0055"/>
</g>
<g id="140^24px">
<path d="M81.1653 7.79915C81.1653 6.13886 79.8176 4.79292 78.1551 4.79292H77.3524C75.6899 4.79292 74.3422 6.13885 74.3422 7.79915V19.4633C74.3422 23.6319 72.0144 26.8185 68.4423 26.8185C64.8703 26.8185 62.5826 23.6319 62.5826 19.4633V7.79914C62.5826 6.13885 61.2349 4.79292 59.5724 4.79292H58.7697C57.1072 4.79292 55.7595 6.13885 55.7595 7.79915V19.343C55.7595 27.8006 60.6362 33.2118 68.4225 33.2118C76.2489 33.2118 81.1653 27.8006 81.1653 19.343V7.79915Z" fill="white"/>
<path d="M88.6414 4.75C86.979 4.75 85.6545 6.15606 85.6545 7.81635V30.0624C85.6545 31.7227 87.0022 33.1688 88.6647 33.1688H92.4374V25.1322H96.0897C103.555 25.1322 108.211 21.164 108.211 14.7908C108.211 8.65809 103.732 4.75 96.6284 4.75H88.6414ZM92.4374 19.1999V10.7825H96.4911C99.5013 10.7825 101.428 12.3457 101.428 14.7908C101.428 17.4764 99.5013 19.1999 96.4911 19.1999H92.4374Z" fill="white"/>
<path d="M115.315 4.75C113.447 4.75 111.578 6.33106 111.578 8.56397V29.718C111.578 31.5449 113.12 33.1688 115.107 33.1688H122.774C131.323 33.1688 137.513 26.3948 137.513 18.298C137.513 10.3215 131.332 4.75 122.783 4.75H115.315ZM118.569 26.4149V10.8426H122.783C127.198 10.8426 130.609 14.0893 130.609 18.298C130.609 22.627 127.198 26.4149 122.783 26.4149H118.569Z" fill="white"/>
<path d="M154.224 4.82455C145.996 4.82455 139.775 11.0775 139.775 19.0139C139.775 26.9504 145.996 33.25 154.224 33.25C162.491 33.25 168.712 26.9504 168.712 19.0139C168.712 11.0775 162.491 4.82455 154.224 4.82455ZM154.224 26.9103C149.809 26.9103 146.638 23.3028 146.638 19.0139C146.638 14.725 149.809 11.1176 154.224 11.1176C158.638 11.1176 161.809 14.725 161.809 19.0139C161.809 23.3028 158.638 26.9103 154.224 26.9103Z" fill="white"/>
<path d="M220.886 10.8627C222.548 10.8627 224 9.45517 224 7.79488C224 6.13458 222.548 4.75 220.886 4.75H202.998C201.234 4.75 199.919 6.21004 199.919 7.79488C199.919 9.37971 201.197 10.8398 203.065 10.8627H208.629V30.0624C208.629 31.7227 209.976 33.1688 211.639 33.1688H215.412V10.8627L220.886 10.8627Z" fill="white"/>
<path d="M185.639 4.82454C177.411 4.82454 171.19 11.0775 171.19 19.0139C171.19 26.9503 177.411 33.25 185.639 33.25C193.907 33.25 200.128 26.9503 200.128 19.0139C200.128 11.0775 193.907 4.82454 185.639 4.82454ZM185.639 26.9103C181.224 26.9103 178.053 23.3028 178.053 19.0139C178.053 14.725 181.224 11.1176 185.639 11.1176C190.054 11.1176 193.224 14.725 193.224 19.0139C193.224 23.3028 190.054 26.9103 185.639 26.9103Z" fill="white"/>
</g>
</g>
</svg>
